{"title":"Moh Maya Money (2016) 1080p Untouched WEBHD AVC AAC [DDR]","magnet":"magnet:?xt=urn:btih:55722e18845f48fdfa8e840d1c22bfa77982798e&dn=Moh+Maya+Money+%282016%29+1080p+Untouched+WEBHD+AVC+AAC+%5BDDR%5D&tr=udp%3A%2F%2Ftracker.leechers-paradise.org%3A6969&tr=udp%3A%2F%2Fzer0day.ch%3A1337&tr=udp%3A%2F%2Fopen.demonii.com%3A1337&tr=udp%3A%2F%2Ftracker.coppersurfer.tk%3A6969&tr=udp%3A%2F%2Fexodus.desync.com%3A6969","uploader":"Browse SaM","categoryP":"video","categoryS":"hd___movies","size":"4818713930","seeders":"0","leechers":"0","description":"\r\n~ Moh Maya Money ~\r\n\r\n** 1080p / WEBHD / AVC / AAC **\r\n\r\nFormat : MPEG-4\r\nFormat profile : Base Media\r\nCodec ID : isom (isom/iso2/avc1/mp41)\r\nFile size : 4.49 GiB\r\nDuration : 1 h 44 min\r\nOverall bit rate mode : Variable\r\nOverall bit rate : 6 132 kb/s\r\nWriting application : Lavf56.15.102\r\n\r\nVideo\r\nID : 1\r\nFormat : AVC\r\nFormat/Info : Advanced Video Codec\r\nFormat profile : <a class=\"__cf_email__\" href=\"/cdn-cgi/l/email-protection\" data-cfemail=\"c981a0aea18985fde7f8\">[email&#xA0;protected]</a><script data-cfhash=\"f9e31\" type=\"text/javascript\">/* <![CDATA[ */!function(t,e,r,n,c,a,p){try{t=document.currentScript||function(){for(t=document.getElementsByTagName('script'),e=t.length;e--;)if(t[e].getAttribute('data-cfhash'))return t[e]}();if(t&&(c=t.previousSibling)){p=t.parentNode;if(a=c.getAttribute('data-cfemail')){for(e='',r='0x'+a.substr(0,2)|0,n=2;a.length-n;n+=2)e+='%'+('0'+('0x'+a.substr(n,2)^r).toString(16)).slice(-2);p.replaceChild(document.createTextNode(decodeURIComponent(e)),c)}p.removeChild(t)}}catch(u){}}()/* ]]> */</script>\r\nFormat settings, CABAC : Yes\r\nFormat settings, ReFrames : 1 frame\r\nFormat settings, GOP : M=1, N=25\r\nCodec ID : avc1\r\nCodec ID/Info : Advanced Video Coding\r\nDuration : 1 h 44 min\r\nBit rate mode : Constant\r\nBit rate : 6 000 kb/s\r\nWidth : 1 920 pixels\r\nHeight : 1 080 pixels\r\nDisplay aspect ratio : 16:9\r\nFrame rate mode : Constant\r\nFrame rate : 25.000 FPS\r\nColor space : YUV\r\nChroma subsampling : 4:2:0\r\nBit depth : 8 bits\r\nScan type : Progressive\r\nBits/(Pixel*Frame) : 0.116\r\nStream size : 4.39 GiB (98%)\r\n\r\nAudio\r\nID : 2\r\nFormat : AAC\r\nFormat/Info : Advanced Audio Codec\r\nFormat profile : LC\r\nCodec ID : 40\r\nDuration : 1 h 44 min\r\nBit rate mode : Variable\r\nBit rate : 125 kb/s\r\nMaximum bit rate : 128 kb/s\r\nChannel(s) : 2 channels\r\nChannel positions : Front: L R\r\nSampling rate : 48.0 kHz\r\nFrame rate : 46.875 FPS (1024 spf)\r\nCompression mode : Lossy\r\nStream size : 94.0 MiB (2%)\r\nDefault : Yes \r\n <a href=\"\nhttps://extraimage.net/image/NNXv\" rel=\"nofollow\" target=\"_NEW\">\nhttps://extraimage.net/image/NNXv</a> <a href=\"\nhttps://extraimage.net/image/NNXu\" rel=\"nofollow\" target=\"_NEW\">\nhttps://extraimage.net/image/NNXu</a> <a href=\"\nhttps://extraimage.net/image/NNXV\" rel=\"nofollow\" target=\"_NEW\">\nhttps://extraimage.net/image/NNXV</a> <a href=\"\nhttps://extraimage.net/image/NNX6\" rel=\"nofollow\" target=\"_NEW\">\nhttps://extraimage.net/image/NNX6</a> <a href=\"\nhttps://extraimage.net/image/NNXx\" rel=\"nofollow\" target=\"_NEW\">\nhttps://extraimage.net/image/NNXx</a> <a href=\"\nhttps://extraimage.net/image/NNXt\" rel=\"nofollow\" target=\"_NEW\">\nhttps://extraimage.net/image/NNXt</a> <a href=\"\nhttps://extraimage.net/image/NNXo\" rel=\"nofollow\" target=\"_NEW\">\nhttps://extraimage.net/image/NNXo</a>","last_updated":"2017-04-25T12:31:58.254Z","parsed":{"xt":"urn:btih:55722e18845f48fdfa8e840d1c22bfa77982798e","dn":"Moh Maya Money (2016) 1080p Untouched WEBHD AVC AAC [DDR]","tr":["udp://exodus.desync.com:6969","udp://open.demonii.com:1337","udp://tracker.coppersurfer.tk:6969","udp://tracker.leechers-paradise.org:6969","udp://zer0day.ch:1337"],"infoHash":"55722e18845f48fdfa8e840d1c22bfa77982798e","infoHashBuffer":{"type":"Buffer","data":[85,114,46,24,132,95,72,253,250,142,132,13,28,34,191,167,121,130,121,142]},"name":"Moh Maya Money (2016) 1080p Untouched WEBHD AVC AAC [DDR]","announce":["udp://exodus.desync.com:6969","udp://open.demonii.com:1337","udp://tracker.coppersurfer.tk:6969","udp://tracker.leechers-paradise.org:6969","udp://zer0day.ch:1337"],"urlList":[]}}